<?xml version="1.0" encoding="UTF-8" standalone="no"?><!DOCTYPE svg PUBLIC "-//W3C//DTD SVG 1.1//EN" "http://www.w3.org/Graphics/SVG/1.1/DTD/svg11.dtd"><svg width="100%" height="100%" viewBox="0 0 500 500" version="1.1" xmlns="http://www.w3.org/2000/svg" xmlns:xlink="http://www.w3.org/1999/xlink" xml:space="preserve" xmlns:serif="http://www.serif.com/" style="fill-rule:evenodd;clip-rule:evenodd;stroke-linejoin:round;stroke-miterlimit:2;"><g><path d="M288.755,162.402c2.584,2.052 2.584,2.052 3.8,5.699c1.599,0.853 3.223,1.66 4.863,2.432c3.402,2.693 5.183,6.159 7.219,9.95c3.041,5.376 3.041,5.376 8.367,8.294c2.034,0.42 2.034,0.42 4.11,0.849c1.469,0.313 2.939,0.627 4.453,0.95c1.535,0.307 3.07,0.614 4.652,0.931c2.324,0.489 2.324,0.489 4.695,0.988c3.827,0.803 7.657,1.587 11.491,2.356l0,-9.727l15.806,0c-1.204,-1.605 -2.407,-3.21 -3.648,-4.863l0,-3.648c1.874,-0.067 3.749,-0.113 5.623,-0.152c1.044,-0.028 2.088,-0.056 3.163,-0.085c3.885,0.274 6.975,1.438 10.667,2.669c3.379,0.603 6.772,0.992 10.183,1.368c0.895,0.105 1.79,0.21 2.712,0.318c2.186,0.255 4.372,0.502 6.559,0.746c-0.802,-2.809 -1.605,-5.617 -2.432,-8.511c1.605,-0.401 3.21,-0.802 4.863,-1.216l0,-2.432c2.432,0 2.432,0 4.125,1.655c0.968,0.987 0.968,0.987 1.955,1.993c1.476,0.955 2.988,1.856 4.526,2.707c0.855,0.476 1.71,0.953 2.591,1.444c0.886,0.486 1.773,0.972 2.686,1.472c0.891,0.495 1.782,0.991 2.7,1.501c4.656,2.584 4.656,2.584 9.382,5.034l0,2.432c1.074,0.183 1.074,0.183 2.17,0.37c6.225,1.954 10.647,8.355 14.167,13.612c2.191,3.202 4.49,5.618 7.447,8.131c4.555,3.88 9.019,7.829 13.374,11.93c0.668,0.591 1.336,1.182 2.024,1.791c1.857,1.78 1.857,1.78 4.588,5.504c-0.062,4.91 -0.382,7.447 -3.42,11.323c-5.412,4.175 -9.053,5.218 -16.034,4.483c-0.928,-0.746 -1.856,-1.492 -2.812,-2.261c-3.632,-2.893 -6.889,-4.229 -11.247,-5.794c-7.534,-2.735 -7.534,-2.735 -10.278,-4.165c-3.219,-1.54 -6.465,-2.246 -9.936,-3.054c-6.939,-1.619 -6.939,-1.619 -8.283,-2.964c-4.486,-0.897 -6.597,-1.156 -10.943,0c-4.993,3.507 -9.397,7.461 -13.802,11.671c-2.108,1.792 -4.274,2.991 -6.677,4.349c-2.842,1.978 -3.704,2.931 -4.604,6.318c-0.303,3.522 -0.353,6.956 -0.297,10.491c-0.019,2.381 -0.041,4.762 -0.066,7.143c0.01,1.05 0.019,2.1 0.029,3.182c-0.119,3.16 -0.63,6.049 -1.33,9.128l4.863,0l0,2.432c0.771,0.143 1.542,0.285 2.337,0.432c17.415,3.647 32.879,8.082 47.67,18.19c3.344,1.961 6.635,3.241 10.275,4.541c6.54,2.564 12.773,5.844 19.053,8.981c1.423,0.697 2.846,1.393 4.312,2.111c1.367,0.681 2.733,1.362 4.141,2.064c1.237,0.614 2.474,1.227 3.748,1.859c3.338,1.968 5.704,3.818 8.163,6.809l0,3.648c-6.338,2.158 -12.748,3.64 -19.454,2.432c-2.984,-2.334 -3.635,-3.609 -4.863,-7.295c-1.406,-0.08 -2.812,-0.16 -4.26,-0.242c-6.073,-0.763 -10.145,-3.42 -15.117,-6.825c-1.705,-1.113 -3.413,-2.221 -5.125,-3.325c-0.809,-0.523 -1.617,-1.045 -2.45,-1.584c-7.504,-4.711 -14.145,-6.696 -22.897,-7.478c-0.401,-0.401 -0.802,-0.802 -1.216,-1.216c-1.638,-0.281 -3.287,-0.5 -4.939,-0.684c-1.58,-0.176 -3.16,-0.351 -4.787,-0.532c4.405,5.396 8.886,10.009 14.201,14.495c2.788,2.497 5.377,5.135 7.969,7.833c6.454,6.695 12.827,11.998 20.761,16.921c3.272,2.09 3.272,2.09 6.117,4.512c4.105,3.099 8.379,4.9 13.113,6.849c9.168,3.833 9.168,3.833 13.222,6.535l0,2.432c-13.35,7.387 -13.35,7.387 -19.454,6.079c-2.888,-2.204 -2.888,-2.204 -4.863,-4.863l0,-3.648c-1.147,-0.115 -1.147,-0.115 -2.318,-0.233c-10.47,-1.498 -16.222,-6.321 -22.607,-14.509c-4.585,-5.273 -10.051,-8.297 -16.328,-11.251c-3.842,-2.029 -6.761,-4.3 -10.04,-7.138c-5.576,-4.677 -11.302,-8.667 -17.511,-12.453c-2.93,-1.833 -2.93,-1.833 -5.367,-3.743c-5.924,-4.243 -11.386,-4.481 -18.456,-4.612c-3.424,-0.774 -3.424,-0.774 -6.844,-3.876c-3.01,-2.718 -4.835,-3.401 -8.896,-3.348c-1.8,0.141 -3.597,0.316 -5.391,0.522c-0.902,0.075 -1.804,0.15 -2.733,0.228c-3.558,0.317 -7,0.724 -10.497,1.469c-11.228,2.105 -23.139,0.102 -34.34,-1.317c-0.816,-0.103 -1.632,-0.205 -2.473,-0.311c-17.185,-2.211 -33.291,-6.788 -49.725,-12.215c-9.85,-3.13 -20.365,-4.872 -30.428,-1.528c-4.823,2.559 -8.887,5.924 -13.123,9.342c-6.503,5.191 -13.341,7.628 -21.192,10.173c-10.024,3.358 -19.491,7.562 -29.038,12.092c-1.281,0.6 -2.561,1.201 -3.881,1.819c-12.622,6.081 -22.872,12.624 -31.379,23.866c-1.915,2.456 -3.833,4.91 -5.758,7.359c-1.198,1.541 -2.371,3.1 -3.516,4.681c-4.857,6.333 -10.242,8.844 -17.627,11.593c-1.568,0.638 -1.568,0.638 -3.168,1.289c-6.591,2.555 -11.811,3.509 -18.869,3.042c0.708,-4.444 1.906,-7.856 4.103,-11.779c0.766,-1.399 0.766,-1.399 1.548,-2.826c1.643,-2.417 1.643,-2.417 5.291,-4.849l4.863,0l0,2.432c3.793,-0.39 5.616,-0.741 8.321,-3.515c0.997,-1.42 0.997,-1.42 2.014,-2.869c3.184,-4.355 6.466,-8.08 10.335,-11.855c7.061,-7.213 12.249,-14.705 17.193,-23.438c2.233,-3.27 3.454,-4.451 7.124,-5.742c-11.893,-0.375 -18.682,3.936 -27.964,10.943c-2.216,1.667 -4.436,3.327 -6.669,4.971c-1.444,1.066 -2.876,2.149 -4.294,3.25c-7.546,5.616 -15.302,5.373 -24.372,5.381c-0.828,0.015 -1.657,0.03 -2.51,0.045c-5.281,0.015 -9.53,-0.768 -14.436,-2.705c0.664,-4.648 2.463,-6.795 6.079,-9.727c3.952,-1.52 3.952,-1.52 7.295,-2.432l0,-2.432c5.537,-0.449 5.537,-0.449 8.283,1.824c0.476,0.602 0.953,1.204 1.444,1.824c3.63,-1.281 6.506,-2.716 9.727,-4.863c3.648,-2.432 3.648,-2.432 6.497,-3.51c7.532,-3.157 14.681,-8.846 20.327,-14.728c1.166,-1.204 1.166,-1.204 2.356,-2.432l2.432,0c0.351,-0.752 0.702,-1.505 1.064,-2.28c1.368,-2.584 1.368,-2.584 3.8,-5.015c2.431,-0.33 2.431,-0.33 5.386,-0.375c1.067,-0.031 2.135,-0.061 3.234,-0.093c2.248,-0.043 4.496,-0.081 6.744,-0.114c1.07,-0.032 2.141,-0.064 3.244,-0.097c0.978,-0.016 1.956,-0.033 2.963,-0.05c3.344,-0.593 4.994,-2.033 7.609,-4.135l2.432,0c-0.05,-1.58 -0.1,-3.16 -0.152,-4.787c0.083,-14.669 0.519,-28.22 9.879,-40.199c-10.074,1.943 -17.427,4.684 -25.533,10.943c-20.663,15.806 -20.663,15.806 -27.964,15.806l0,-2.432c-1.354,0.401 -2.708,0.802 -4.103,1.216c-12.037,2.925 -22.943,0.439 -34.804,-2.432l0,-3.648l6.079,0l0,-3.648c-1.73,-0.339 -1.73,-0.339 -3.496,-0.684c-1.254,-0.577 -2.508,-1.154 -3.8,-1.748c-1.444,-4.179 -1.444,-4.179 -2.432,-8.511c-1.874,-2.078 -1.874,-2.078 -3.648,-3.648l0,-3.648c5.575,-0.177 10.493,-0.261 15.882,1.216c17.876,4.305 33.912,-0.231 50.367,-7.381c8.827,-3.267 17.141,-3.967 26.459,-4.474c13.277,-0.857 25.898,-3.161 38.809,-6.344c11.921,-2.841 23.604,-3.906 35.581,-0.818c15.433,3.852 30.986,5.903 46.891,5.642c-1.747,-1.369 -3.495,-2.737 -5.243,-4.103c-0.973,-0.762 -1.947,-1.523 -2.949,-2.308c-2.077,-1.586 -4.223,-3.081 -6.397,-4.531l0,-2.432c-1.605,-0.401 -3.21,-0.802 -4.863,-1.216c-0.401,-1.605 -0.802,-3.21 -1.216,-4.863l-2.432,0c-0.578,-10.023 -0.578,-10.023 1.672,-13.602c0.652,-0.727 1.304,-1.454 1.976,-2.204c0.226,-1.229 0.451,-2.458 0.684,-3.724c1.748,-3.572 1.748,-3.572 4.004,-4.507c2.063,-0.522 4.129,-1.028 6.198,-1.525c4.46,-1.429 8.237,-3.639 12.215,-6.051c9.658,-5.761 21.496,-12.019 32.676,-6.915Z" style="fill:#050505;fill-rule:nonzero;"/><path d="M292.555,188.771c2.125,1.824 4.225,3.675 6.307,5.547c6.201,5.201 9.975,6.743 18.01,6.611l0,2.432c1.204,0.401 2.407,0.802 3.648,1.216c-3.564,1.188 -6.305,1.453 -10.031,1.672c-6.811,0.582 -11.914,2.452 -17.924,5.728c-9.234,4.913 -9.234,4.913 -14.6,3.543c-2.367,-2.238 -4.362,-4.617 -6.388,-7.167c-1.961,-2.365 -3.893,-4.168 -6.302,-6.055c-1.028,-0.853 -2.056,-1.705 -3.116,-2.584l0,-2.432c23,-13.113 23,-13.113 30.396,-8.511Z" style="fill:#f1f1ef;fill-rule:nonzero;"/><path d="M302.661,128.738c4.27,0.112 6.765,0.39 10.715,2.128c3.327,4.658 4.103,9.665 3.496,15.35c-1.696,1.919 -1.696,1.919 -3.648,3.648c-1.188,2.191 -1.188,2.191 -2.052,4.483c-0.527,1.329 -1.053,2.658 -1.596,4.027c-7.744,0.543 -12.028,-0.02 -18.238,-4.863c-2.505,-5.635 -2.889,-9.887 -1.216,-15.806c3.329,-6.368 5.226,-8.868 12.538,-8.967Z" style="fill:#0b0b0a;fill-rule:nonzero;"/><path d="M39.658,237.404c2.356,1.368 2.356,1.368 4.863,3.648c0.176,1.229 0.351,2.458 0.532,3.724c0.226,1.179 0.451,2.357 0.684,3.572c2.994,1.767 2.994,1.767 6.079,2.432l0,3.648l-4.863,0c-0.802,-1.204 -1.605,-2.407 -2.432,-3.648c-1.204,-0.802 -2.407,-1.605 -3.648,-2.432c-0.622,-2.631 -0.622,-2.631 -0.836,-5.623c-0.08,-0.994 -0.16,-1.987 -0.242,-3.011c-0.045,-0.762 -0.091,-1.523 -0.138,-2.308Z" style="fill:#c5c4be;fill-rule:nonzero;"/><path d="M303.117,128.966c1.208,0.033 2.417,0.066 3.662,0.1c1.385,0.063 1.385,0.063 2.797,0.128l0,1.216c-0.762,0.06 -1.523,0.119 -2.308,0.18c-0.994,0.091 -1.987,0.182 -3.011,0.275c-0.987,0.085 -1.975,0.169 -2.992,0.256c-2.878,0.295 -2.878,0.295 -5.063,2.935c-1.204,-0.401 -2.407,-0.802 -3.648,-1.216c3.142,-4.086 5.565,-4.052 10.563,-3.876Z" style="fill:#353635;fill-rule:nonzero;"/><path d="M100.451,305.492l8.511,0c-1.542,3.085 -3.036,3.388 -6.079,4.863c-0.802,0.802 -1.605,1.605 -2.432,2.432l0,-7.295Z" style="fill:#dfdedf;fill-rule:nonzero;"/><path d="M186.776,289.686c0,3.648 0,3.648 -2.052,6.231c-3.066,2.486 -5.017,3.065 -8.891,3.496c3.435,-3.562 7.037,-6.689 10.943,-9.727Z" style="fill:#cdcdcc;fill-rule:nonzero;"/><path d="M44.522,248.347c2.407,0.802 4.815,1.605 7.295,2.432l0,3.648l-4.863,0c-0.802,-2.006 -1.605,-4.012 -2.432,-6.079Z" style="fill:#d4d3d2;fill-rule:nonzero;"/><path d="M128.415,232.541c3.611,0.401 7.222,0.802 10.943,1.216c-0.401,0.802 -0.802,1.605 -1.216,2.432l-10.943,0c0.401,-1.204 0.802,-2.407 1.216,-3.648Z" style="fill:#303130;fill-rule:nonzero;"/></g></svg>