<svg xmlns="http://www.w3.org/2000/svg" id="svg3" viewBox="38.2678 372.286 318 282" version="1.1" width="318" height="282">
  
  <defs id="defs1">
    <style id="style1">
      .cls-1 {
        fill: #071024;
      }
    </style>
  </defs>
  
  <g transform="matrix(1.1006806,0,0,1.1006806,38.4,378.09231)" id="g3">
    <g id="Layer_1">
      <polygon id="polygon1" points="428.5,249.4 465.1,249.4 465.1,142.8 540.6,142.8 540.6,142.9 559,142.9 572.2,110.4 542.9,110.4 542.9,110.3 465.1,110.3 465.1,33.5 592.6,33.5 603,33.5 616.3,0.7 428.5,0.7" class="cls-1"/>
      <path id="path1" d="m 281.8,0 c -1.1,0 -2.2,0.4 -3.1,1.2 L 0,249.4 H 83.5 L 280.1,6.9 224.4,249.4 H 285 V 3.3 c 0,-1.8 -1.5,-3.2 -3.2,-3.2" class="cls-1"/>
      <polygon id="polygon2" points="721.4,129.1 753.9,212.5 753.8,212.5 768.1,249.4 807.7,249.4 707.2,0.7 668.2,0.7 567.1,249.4 606.3,249.4 631.3,185.4 719.6,185.4 706.5,153.3 644.2,153.3 687.5,42.3 721.4,129.1" class="cls-1"/>
      <path id="path2" d="M 1026.8,72.8 C 1026.8,30.5 997,0.7 945.9,0.7 H 835.6 v 248.7 h 36.5 V 144.2 h 49.7 l 72.4,105.2 h 43 L 962.1,143.1 c 42,-5.4 64.6,-32.5 64.6,-70.4 m -154.5,39 v 0 -78.2 H 945 c 29.1,0 45.3,15.9 45.3,39.3 0,23.4 -16.2,38.9 -45.3,38.9 z" class="cls-1"/>
      <path id="path3" d="m 1084.3,211.1 c -10.6,0 -19.1,8.6 -19.1,19.1 0,10.5 8.6,19.1 19.1,19.1 10.5,0 19.1,-8.6 19.1,-19.1 0,-10.5 -8.6,-19.1 -19.1,-19.1" class="cls-1"/>
      <rect id="rect3" height="248.7" width="36.200001" y="0.69999999" x="1401.4" class="cls-1"/>
      <polygon id="polygon3" points="1287.4,129.1 1319.9,212.5 1319.8,212.5 1334,249.4 1373.6,249.4 1273.1,0.7 1234.2,0.7 1133,249.4 1172.3,249.4 1197.3,185.4 1285.6,185.4 1272.5,153.3 1210.2,153.3 1253.5,42.3 1287.4,129.1" class="cls-1"/>
    </g>
  </g>
</svg>
